{"title":"Something Borrowed TS XViD - IMAGiNE","uid":6389782,"size":1472781583,"categoryP":"video","categoryS":"movies","magnet":"?xt=urn:btih:f430824fc1a7b67e2a2e662b93f26b2b54f9a3c0&amp;dn=Something+Borrowed+TS+XViD+-+IMAGiNE&amp;tr=udp%3A%2F%2Ftracker.openbittorrent.com%3A80&amp;tr=udp%3A%2F%2Fopen.demonii.com%3A1337&amp;tr=udp%3A%2F%2Ftracker.coppersurfer.tk%3A6969&amp;tr=udp%3A%2F%2Fexodus.desync.com%3A6969","seeders":1,"leechers":0,"uploader":"sceneline","files":103,"time":1305318443,"description":"- &lt;a href=&quot;\nhttp://www.Speed.Cd&quot; rel=&quot;nofollow&quot; target=&quot;_NEW&quot;&gt;\nhttp://www.Speed.Cd&lt;/a&gt; \n       &lt;a href=&quot;\nhttp://www.Speed.Cd&quot; rel=&quot;nofollow&quot; target=&quot;_NEW&quot;&gt;\nhttp://www.Speed.Cd&lt;/a&gt;       the fast  and The Hottest Private Tracker on the net\n\nPlease Seed back to make the speed Faster!!!\n\nand don't forget to visit      ...... http://www.Speed.Cd..........\n-      *********** ****    ****      ***      ******** *********** ****    *** **********\n           *+*     +*+*+* *+*+*+   *+* *+*   *+*    *+*    *+*     *+*+*   *+* *+*        \n           +*+     +*+ +*+*+ +*+  +*+   +*+  +*+           +*+     *+*+*+  +*+ +*+        \n           +$+     +$+  +*+  +$+ +$++*++$++* *$*           +$+     +$+ +*+ +$+ +$++*++$  \n           +$+     +$+       +$+ +$+     +$+ +$+   +$+$    +$+     +$+  +$+$+$ +$+        \n           $+$     $+$       $+$ $+$     $+$ $+$    $+$    $+$     $+$   $+$+$ $+$        \n       $$$$$$$$$$$ $$$       $$$ $$$     $$$  $$$$$$$$ $$$$$$$$$$$ $$$    $$$$ $$$$$$$$$$     \n                                                \n\n\n\n                           Another Fine Release Brought to you from - IMAGiNE                   \n                                                 \n\n********************************************************************************************************************                                \n                              Something Borrowed TS XViD - IMAGiNE\n********************************************************************************************************************\n\nRipper ...........: IMAGiNE                                      IMDB Rating.......: 5.5/10                             \nVideo Codec.......: XVID                                         Release Date......: 11/05/11\nAudio Codec.......: MP3                                          Theatre Date......: 06/05/11\nAudio Bitrate.....: 128                                          Runtime...........: 1h 47mn\nSubtitles.........: NIL                                          Language..........: ENGLISH\nResolution........: 720 x 384                                    IMDb URL..........: http://www.imdb.com/title/tt0491152/\n\n\n[color=yellow]DETAILS:[/color]\n\nVideo\nID                               : 0\nFormat                           : MPEG-4 Visual\nFormat profile                   : Advanced Simple@L5\nFormat settings, BVOP            : Yes\nFormat settings, QPel            : No\nFormat settings, GMC             : No warppoints\nFormat settings, Matrix          : Default (MPEG)\nMuxing mode                      : Packed bitstream\nCodec ID                         : XVID\nCodec ID/Hint                    : XviD\nDuration                         : 1h 47mn\nBit rate                         : 1 685 Kbps\nWidth                            : 720 pixels\nHeight                           : 384 pixels\nDisplay aspect ratio             : 1.875\nFrame rate                       : 25.000 fps\nColor space                      : YUV\nChroma subsampling               : 4:2:0\nBit depth                        : 8 bits\nScan type                        : Progressive\nBits/(Pixel*Frame)               : 0.244\nStream size                      : 1.27 GiB (92%)\nWriting library                  : XviD 61\n\nAudio\nID                               : 1\nFormat                           : MPEG Audio\nFormat version                   : Version 1\nFormat profile                   : Layer 3\nCodec ID                         : 55\nCodec ID/Hint                    : MP3\nDuration                         : 1h 47mn\nBit rate mode                    : Constant\nBit rate                         : 128 Kbps\nChannel(s)                       : 1 channel\nSampling rate                    : 44.1 KHz\nVideo delay                      : 20ms\nStream size                      : 98.7 MiB (7%)\nAlignment                        : Split accross interleaves\nInterleave, duration             : 40 ms (1.00 video frame)\nInterleave, preload duration     : 500 ms\nWriting library                  : LAME3.98\u0013kmlLj\u0004\n\n\n[color=yellow]SOURCES:[/color]\n\nVIDEO: russians....:P Thanks matey\nAUDIO: Thanks matey ....:P \n\n[color=yellow]NOTES:[/color]\n\nIMAGiNE bringing you another release.......... Something Borrowed\n\nThis time we have to thanks Lu for sycing the audio big thanks again great work......\nNow the video was just ok but was interlaced and has an scolling flicker to it.......\nSo we cropped,rotated and resized also adjusted the brightness,rgb, and all of that :P\nThe audio we muxed to our encode......\nEnjoy folks!\n\n\n\n[color=yellow]SCREENS:[/color]\n\n[IMG]http://www.grinshare.com/img/U183MS.png[/IMG]\n[IMG]http://www.grinshare.com/img/J4KLKX.png[/IMG]\n[IMG]http://www.grinshare.com/img/15SZYR.png[/IMG]\n[IMG]http://www.grinshare.com/img/RAYJAN.png[/IMG]\n[IMG]http://www.grinshare.com/img/8W4407.png[/IMG]\n[IMG]http://www.grinshare.com/img/TM59H0.png[/IMG]\n\n\n[color=yellow]GREETS:[/color]\n\nFLAWL3SS,FUSiON,Rx,SecretMyth,KINOPARK,ELEKTRI4KA,ADDiCTED and Autotron\nAnd to all the other p2p grps past and present \n\n\n[COLOR=RED]Looking for these,syncers,cammers,silver supplier,Audio.....Have anything to offer????......\nContact us &lt;a class=&quot;__cf_email__&quot; href=&quot;/cdn-cgi/l/email-protection&quot; data-cfemail=&quot;f29b9f93959b9c9795809d8782b29a87819a9f939b9edc919d9f&quot;&gt;[email&amp;#160;protected]&lt;/a&gt;&lt;script cf-hash='f9e31' type=&quot;text/javascript&quot;&gt;\n/* &lt;![CDATA[ */!function(){try{var t=&quot;currentScript&quot;in document?document.currentScript:function(){for(var t=document.getElementsByTagName(&quot;script&quot;),e=t.length;e--;)if(t[e].getAttribute(&quot;cf-hash&quot;))return t[e]}();if(t&amp;&amp;t.previousSibling){var e,r,n,i,c=t.previousSibling,a=c.getAttribute(&quot;data-cfemail&quot;);if(a){for(e=&quot;&quot;,r=parseInt(a.substr(0,2),16),n=2;a.length-n;n+=2)i=parseInt(a.substr(n,2),16)^r,e+=String.fromCharCode(i);e=document.createTextNode(e),c.parentNode.replaceChild(e,c)}}}catch(u){}}();/* ]]&gt; */&lt;/script&gt;[/COLOR]","torrent":{"xt":"urn:btih:f430824fc1a7b67e2a2e662b93f26b2b54f9a3c0","amp;dn":"Something+Borrowed+TS+XViD+-+IMAGiNE","amp;tr":["udp%3A%2F%2Ftracker.openbittorrent.com%3A80","udp%3A%2F%2Fopen.demonii.com%3A1337","udp%3A%2F%2Ftracker.coppersurfer.tk%3A6969","udp%3A%2F%2Fexodus.desync.com%3A6969"],"infoHash":"f430824fc1a7b67e2a2e662b93f26b2b54f9a3c0","infoHashBuffer":{"type":"Buffer","data":[244,48,130,79,193,167,182,126,42,46,102,43,147,242,107,43,84,249,163,192]},"announce":[],"urlList":[]}}